<?xml version="1.0" standalone="no"?>
<!DOCTYPE svg PUBLIC "-//W3C//DTD SVG 20010904//EN"
 "http://www.w3.org/TR/2001/REC-SVG-20010904/DTD/svg10.dtd">
<svg version="1.0" xmlns="http://www.w3.org/2000/svg"
 width="806.000000pt" height="806.000000pt" viewBox="0 0 806.000000 806.000000"
 preserveAspectRatio="xMidYMid meet">

<g transform="translate(0.000000,806.000000) scale(0.100000,-0.100000)"
fill="#000000" stroke="none">
<path d="M3505 7710 c-3 -5 -13 -6 -22 -3 -11 4 -14 3 -9 -5 4 -7 1 -12 -8
-12 -22 0 -66 -22 -61 -30 3 -4 -8 -7 -23 -7 -43 1 -92 -29 -92 -57 0 -19 -7
-26 -30 -31 -37 -8 -239 -200 -219 -208 10 -3 1 -18 -28 -49 -24 -24 -43 -48
-43 -52 0 -5 -22 -47 -50 -95 -83 -144 -81 -134 -80 -493 0 -273 3 -322 17
-355 15 -34 17 -35 21 -15 5 31 46 27 50 -5 3 -19 -1 -23 -21 -23 -14 0 -27
-6 -29 -12 -3 -7 -13 -13 -24 -13 -12 0 -25 -13 -36 -33 -14 -29 -16 -64 -12
-266 3 -220 5 -235 28 -288 25 -57 49 -74 111 -80 25 -3 30 -8 32 -33 3 -54
49 -200 76 -243 15 -23 56 -73 92 -111 71 -75 92 -119 115 -246 7 -38 19 -95
26 -125 7 -30 16 -80 19 -110 4 -30 13 -90 21 -134 23 -130 23 -131 -52 -203
-37 -34 -70 -60 -75 -58 -4 3 -22 -7 -41 -22 -18 -16 -44 -37 -57 -48 -14 -11
-35 -29 -47 -41 -12 -12 -29 -24 -38 -27 -9 -4 -16 -11 -16 -17 0 -5 -5 -10
-11 -10 -15 0 -130 -51 -149 -65 -8 -7 -22 -13 -30 -13 -109 -4 -177 -29 -290
-106 -45 -30 -90 -58 -101 -61 -10 -4 -19 -11 -19 -16 0 -5 -19 -9 -42 -9 -39
0 -47 -5 -103 -62 -76 -78 -201 -309 -241 -444 -69 -235 -81 -304 -105 -579
-5 -66 -14 -124 -19 -129 -6 -6 -10 -20 -10 -31 0 -29 -40 -26 -53 3 -10 22 7
82 24 82 4 0 5 16 2 37 -5 27 -3 34 6 29 9 -6 11 19 9 103 -3 103 -9 130 -21
99 -4 -10 -6 -10 -6 0 -1 21 -28 42 -45 36 -11 -4 -16 -1 -16 10 0 13 -6 15
-27 10 -53 -13 -66 -24 -60 -53 3 -15 2 -33 -4 -41 -7 -13 -9 -12 -9 3 0 9 -4
17 -10 17 -5 0 -10 -12 -10 -26 0 -20 -4 -24 -19 -19 -11 3 -21 0 -24 -9 -4
-9 -14 -12 -27 -9 -14 4 -20 1 -18 -8 2 -11 -13 -15 -64 -17 -38 -2 -68 -7
-68 -13 0 -5 -32 -9 -72 -9 -40 1 -82 1 -93 0 -23 -1 -75 -41 -75 -59 0 -6 -6
-11 -12 -11 -9 0 -8 -4 2 -10 13 -8 13 -10 -2 -10 -9 0 -30 -17 -45 -37 -39
-52 -73 -81 -106 -88 -15 -4 -27 -10 -27 -14 0 -8 -49 -26 -97 -36 -17 -3 -37
-13 -44 -21 -6 -8 -17 -14 -24 -14 -7 0 -18 -6 -24 -14 -8 -10 -36 -14 -94
-13 -45 0 -76 2 -69 4 22 8 1 23 -33 23 -27 0 -37 -6 -47 -27 -9 -19 -21 -28
-36 -27 -12 0 -22 -5 -22 -13 0 -17 36 -53 52 -53 19 0 73 -72 70 -92 -4 -23
34 -33 61 -15 36 23 89 29 121 12 15 -8 34 -15 41 -15 7 0 15 -7 19 -15 3 -9
18 -15 35 -15 16 0 33 -5 37 -12 5 -8 2 -9 -10 -5 -10 4 -15 3 -11 -3 3 -6 12
-10 20 -10 7 0 15 -5 17 -11 3 -8 19 -8 61 1 56 11 111 7 133 -11 6 -5 21 -7
34 -4 16 3 31 -4 51 -26 28 -30 28 -30 56 -12 15 10 30 20 33 24 3 3 29 18 58
33 28 14 52 29 52 32 0 3 -6 2 -12 -2 -9 -5 -10 -4 -3 3 11 10 95 38 108 35 4
-1 7 3 7 8 0 6 10 10 23 10 26 0 38 8 53 34 16 30 32 31 27 1 -3 -14 -1 -25 5
-25 16 0 43 -58 29 -63 -7 -2 0 -15 14 -29 23 -23 34 -26 88 -25 43 1 65 -2
70 -12 7 -11 10 -10 14 5 3 10 3 -33 0 -96 -5 -105 -20 -169 -41 -171 -4 0
-19 -2 -35 -4 -15 -2 -25 0 -22 6 4 5 0 9 -7 9 -10 0 -10 2 -1 8 7 4 -11 8
-40 7 -29 0 -54 -3 -57 -6 -3 -4 -46 -11 -97 -17 -61 -6 -97 -15 -108 -26 -9
-9 -21 -16 -28 -16 -6 0 -21 -9 -33 -21 -19 -18 -23 -18 -36 -5 -9 8 -34 17
-57 20 -23 2 -48 9 -55 15 -8 7 -27 10 -44 9 -19 -1 -39 5 -51 16 -11 10 -32
18 -46 18 -14 0 -25 6 -25 12 0 7 -13 39 -30 71 -16 32 -28 61 -25 64 3 2 -15
15 -41 28 -62 32 -133 31 -163 -1 -19 -20 -27 -22 -64 -15 -23 4 -45 8 -49 9
-4 0 -5 7 -2 15 4 11 -1 15 -17 15 l-24 1 25 14 25 14 -23 1 c-15 0 -22 5 -19
13 2 6 11 11 18 9 9 -2 6 6 -7 20 -12 13 -24 30 -27 38 -4 11 -6 11 -6 -3 -1
-10 -7 -17 -13 -14 -7 2 -18 -3 -25 -12 -11 -14 -13 -14 -28 4 -16 19 -16 18
-10 -17 5 -30 3 -38 -10 -38 -32 0 -15 -84 17 -85 5 0 17 -17 28 -38 19 -35
19 -38 3 -44 -10 -4 -24 -13 -31 -20 -16 -16 -95 -17 -123 -2 -14 7 -24 7 -33
0 -8 -7 -24 -7 -50 0 -20 6 -43 8 -49 6 -7 -2 -19 2 -29 10 -14 13 -20 10 -53
-22 -20 -20 -42 -38 -48 -39 -7 -1 -19 -6 -26 -11 -27 -16 -65 -11 -100 12
-19 13 -42 23 -52 23 -18 0 -19 -32 -19 -995 l0 -995 3214 0 c2348 0 3217 3
3222 11 3 6 0 16 -7 21 -11 8 -11 11 -1 15 10 4 9 10 -4 30 -12 19 -13 27 -4
33 9 5 9 9 1 14 -6 4 -8 22 -5 42 4 27 1 39 -12 48 -16 12 -16 13 0 19 13 5
15 11 7 26 -8 14 -8 21 2 24 9 3 9 12 -2 43 -8 21 -19 42 -25 47 -8 5 -6 12 7
21 20 15 23 36 4 36 -18 0 -35 51 -26 83 6 21 4 27 -9 28 -10 0 -12 2 -7 5 10
4 10 52 1 148 -3 26 0 57 5 67 5 11 13 28 19 39 5 10 6 21 2 24 -4 2 -7 24 -6
48 1 23 -4 47 -10 51 -8 6 -7 10 2 14 6 2 12 17 12 32 0 15 5 32 12 39 9 9 9
12 0 12 -7 0 -12 7 -12 15 0 8 5 15 10 15 6 0 10 11 10 24 0 14 -4 28 -10 31
-14 9 -13 25 2 25 7 0 33 20 58 45 55 54 141 90 257 107 98 14 110 29 33 42
-14 3 -41 5 -60 6 -46 1 -21 17 35 22 47 5 63 35 23 46 -22 6 -22 6 5 12 l29
5 -22 28 c-20 25 -20 28 -5 25 10 -2 20 3 23 11 4 12 -16 13 -129 8 -74 -4
-145 -10 -159 -14 -14 -3 -22 -3 -19 0 5 6 121 34 221 54 15 3 25 9 22 14 -3
5 2 12 10 15 20 8 21 24 1 24 -19 0 -19 7 0 26 20 20 8 44 -21 44 -21 0 -23 3
-14 19 15 29 13 33 -12 26 -22 -6 -22 -6 -4 9 22 18 21 21 -14 35 -18 7 -20
10 -7 10 20 1 22 12 5 29 -9 9 -7 13 8 18 88 31 111 54 56 54 -44 0 -95 29
-87 49 14 34 14 52 0 58 -22 8 -18 20 9 27 18 4 22 11 19 31 -3 13 -13 27 -22
30 -9 3 -22 17 -28 32 -15 32 -17 46 -4 39 5 -4 21 -2 36 4 l26 10 -39 36
c-30 27 -38 41 -34 60 3 19 9 23 23 19 23 -8 24 -2 3 30 -16 24 -15 25 7 26
20 1 21 2 4 6 -11 2 -32 9 -47 15 -26 10 -26 11 -11 34 10 16 22 23 33 19 27
-9 32 10 9 31 -12 10 -28 32 -37 49 -8 17 -17 24 -19 18 -3 -9 -10 -10 -23 -3
-19 10 -34 50 -19 50 5 0 9 10 9 23 1 19 2 20 13 6 16 -21 57 -34 57 -19 0 6
5 8 12 4 7 -4 8 -3 4 5 -4 6 -25 20 -47 31 -43 23 -49 35 -19 43 18 5 46 -11
93 -54 10 -9 27 -38 37 -65 l19 -49 1 36 c0 22 -9 49 -23 70 -28 41 -174 189
-186 189 -5 0 -11 9 -14 20 -3 13 -14 20 -29 20 -29 0 -53 43 -33 60 10 8 19
8 34 0 12 -6 21 -7 21 -2 0 20 -29 44 -60 51 -18 3 -34 13 -36 21 -1 8 -6 24
-10 34 -6 16 -4 18 12 12 10 -5 27 -11 36 -13 10 -3 15 -9 12 -14 -3 -5 1 -6
9 -3 8 3 28 -12 50 -38 19 -24 60 -69 90 -100 37 -39 61 -76 77 -117 26 -71
41 -73 28 -4 -5 26 -13 84 -17 128 -13 111 -26 141 -124 300 -85 137 -177 287
-177 290 0 5 -150 222 -198 288 -42 57 -105 110 -149 128 -28 11 -30 22 -3 15
61 -18 65 -18 55 -7 -17 17 -176 63 -221 63 -23 0 -50 -5 -62 -11 -18 -9 -19
-8 -15 10 3 11 11 18 19 15 8 -3 11 0 8 9 -3 8 -25 23 -47 33 -61 28 -74 31
-84 21 -10 -10 -83 0 -83 12 0 5 -8 9 -18 9 -10 0 -23 5 -30 12 -6 6 -15 8
-19 4 -4 -4 -1 -11 7 -16 11 -7 11 -10 2 -10 -7 0 -15 6 -18 13 -4 13 -72 19
-185 18 -37 -1 -50 4 -67 24 -12 14 -22 30 -22 35 0 7 -7 7 -20 0 -14 -7 -20
-7 -20 0 0 5 0 12 0 15 0 3 3 6 8 7 4 1 19 13 34 27 23 20 26 27 16 39 -10 12
-13 12 -17 1 -11 -33 -28 -40 -60 -22 -16 10 -32 26 -35 36 -2 11 -9 16 -14
13 -5 -3 -17 3 -27 14 -10 11 -26 20 -35 20 -9 0 -21 5 -27 11 -15 15 -34 2
-26 -17 3 -9 -6 -4 -22 10 -22 21 -25 29 -16 40 9 11 9 15 -1 19 -10 4 -10 8
2 16 9 7 10 11 3 11 -6 0 -14 -4 -17 -8 -3 -5 -19 -7 -37 -4 -22 3 -30 1 -25
-7 4 -6 16 -11 27 -11 11 0 18 -4 15 -9 -8 -12 -56 -1 -56 14 0 7 -10 16 -22
20 -20 6 -17 9 20 18 23 5 42 14 42 20 0 5 18 27 40 48 46 45 48 49 20 49 -11
0 -20 6 -20 14 0 8 -7 17 -16 20 -15 6 -15 8 0 31 10 15 12 26 5 30 -12 8 -26
-1 -117 -82 -70 -61 -172 -126 -265 -170 -52 -24 -82 -30 -72 -13 3 6 1 10 -5
10 -8 0 -8 6 0 20 8 14 8 20 0 20 -12 0 -13 17 -12 210 2 209 5 295 11 305 3
6 7 46 8 90 2 104 9 128 75 263 31 63 49 112 42 112 -6 0 -14 7 -18 15 -4 10
1 15 14 15 16 0 20 6 18 30 -1 16 -9 32 -16 35 -11 4 -11 9 -3 19 6 7 8 16 4
20 -4 4 -1 11 6 15 9 6 4 12 -18 22 -24 11 -31 20 -31 41 0 16 -3 28 -7 28 -5
0 -9 27 -10 61 -1 48 -7 69 -28 99 -16 23 -24 44 -19 51 5 9 2 10 -9 6 -12 -4
-21 3 -32 27 -9 19 -32 51 -51 72 -19 22 -32 44 -30 49 20 49 21 47 -11 29
-29 -17 -30 -17 -77 15 -56 39 -57 59 -1 77 22 6 33 13 25 13 -28 3 22 31 54
31 24 0 27 -3 16 -10 -23 -15 -2 -12 29 4 15 8 45 36 66 61 35 43 37 50 32 95
-6 52 0 60 49 60 35 0 19 28 -18 32 -27 3 -33 9 -44 49 -23 78 -86 119 -224
145 -98 18 -124 30 -151 65 -12 16 -28 29 -35 29 -8 0 -26 19 -40 42 -24 37
-25 43 -10 53 9 7 16 15 16 19 0 23 111 96 146 96 9 0 18 9 21 20 3 11 9 20
14 20 5 0 2 15 -7 33 -12 24 -32 40 -79 62 -36 17 -64 34 -65 38 0 5 -4 6 -9
3 -4 -3 -16 3 -26 14 -10 11 -25 20 -33 20 -8 0 -26 10 -41 23 -23 19 -26 27
-18 50 5 15 13 27 19 27 6 0 3 9 -6 19 -13 15 -14 20 -4 24 8 4 7 6 -4 6 -12
1 -18 9 -18 25 0 13 -3 26 -7 29 -5 2 -3 2 4 1 6 -2 17 4 23 11 10 12 9 16 -4
21 -23 9 -20 27 3 19 13 -4 26 2 40 16 15 17 27 20 51 16 17 -4 30 -2 30 3 0
6 7 10 15 10 8 0 15 -5 15 -11 0 -5 4 -8 9 -5 5 3 27 -1 50 -9 25 -8 43 -10
46 -4 4 5 11 6 17 3 6 -4 20 -8 32 -9 36 -4 37 -5 31 -15 -4 -6 1 -7 11 -3 12
4 15 3 10 -6 -6 -9 -1 -10 18 -5 16 4 26 2 26 -4 0 -6 8 -10 18 -10 32 3 72
-12 72 -27 0 -8 5 -15 11 -15 5 0 7 5 4 10 -12 19 24 10 82 -19 32 -17 59 -28
61 -26 7 7 -9 25 -18 20 -4 -3 -13 2 -20 10 -10 13 -9 15 9 15 28 0 40 29 18
42 -25 13 -21 31 3 18 25 -13 39 -6 36 18 -2 12 -13 17 -40 19 -45 1 -69 10
-62 22 3 5 -3 11 -14 14 -11 3 -20 1 -20 -4 0 -5 -5 -9 -10 -9 -6 0 -3 11 5
24 15 23 14 24 -17 36 -18 7 -46 18 -63 26 -37 16 -44 10 -19 -18 11 -13 13
-18 4 -12 -20 12 -73 12 -82 0 -4 -6 -13 -4 -23 4 -9 8 -12 16 -6 19 5 4 -6
16 -24 28 -19 13 -32 17 -30 10 3 -6 -3 -17 -13 -24 -15 -9 -19 -8 -19 3 0 8
4 14 9 14 16 0 8 20 -22 50 -16 16 -34 30 -40 30 -19 0 -10 -39 18 -71 15 -18
20 -29 12 -25 -27 16 -60 49 -60 61 0 6 -16 29 -36 51 -19 21 -33 31 -30 21 3
-10 3 -17 -1 -15 -52 25 -64 35 -69 55 -4 13 -10 23 -14 23 -4 0 -14 15 -21
33 -15 37 -37 57 -56 50 -18 -7 -16 -23 2 -23 8 0 19 -9 25 -21 11 -20 11 -20
-17 -2 -15 10 -33 25 -40 34 -16 21 -63 30 -78 15 -16 -15 -15 -46 1 -46 7 0
15 -8 19 -19 3 -10 34 -39 70 -65 35 -26 65 -51 67 -54 6 -13 88 -51 88 -41 0
20 25 7 69 -38 25 -26 49 -46 54 -45 4 1 7 -2 7 -8 0 -5 5 -10 11 -10 6 0 9 7
5 15 -9 24 11 18 42 -13 16 -16 38 -32 47 -36 14 -5 16 -9 7 -18 -9 -9 -15 -8
-25 6 -8 10 -28 20 -45 22 -18 2 -46 6 -62 8 -17 1 -42 14 -56 27 -17 15 -23
18 -19 7 10 -26 -13 -31 -48 -10 -39 25 -79 31 -84 14 -3 -6 6 -16 19 -21 12
-6 17 -10 9 -10 -11 -1 -11 -4 -1 -16 14 -17 0 -21 -16 -5 -5 5 -22 11 -36 12
-15 1 -24 6 -21 11 2 4 14 5 26 2 17 -5 19 -4 7 4 -8 6 -22 8 -30 6 -8 -3 -28
6 -45 20 -18 14 -24 24 -16 25 11 0 8 6 -7 20 -31 29 -27 36 18 32 22 -2 48
-1 57 2 14 6 11 12 -17 41 -32 33 -59 48 -45 25 3 -5 4 -10 1 -10 -3 0 -17 18
-31 40 -14 22 -31 40 -38 40 -12 0 -57 62 -57 79 0 10 -24 21 -43 21 -7 0 -4
-5 6 -11 14 -8 16 -14 6 -25 -16 -19 -32 -18 -59 6 -13 11 -36 20 -52 20 -16
0 -38 5 -48 10 -12 6 -21 7 -25 0z m5 -34 c0 -2 2 -10 5 -18 4 -10 -6 -13 -39
-13 -42 0 -44 1 -29 18 14 15 63 25 63 13z m0 -51 c7 -8 9 -15 4 -16 -5 -1 2
-4 16 -8 15 -4 25 -14 26 -26 0 -11 5 -29 11 -40 10 -18 9 -21 -8 -22 -10 -1
-19 2 -19 8 0 5 4 9 9 9 5 0 -8 18 -30 41 -37 38 -50 69 -30 69 5 0 14 -7 21
-15z m170 5 c0 -5 -4 -10 -10 -10 -5 0 -10 5 -10 10 0 6 5 10 10 10 6 0 10 -4
10 -10z m-90 -30 c0 -5 -2 -10 -4 -10 -3 0 -8 5 -11 10 -3 6 -1 10 4 10 6 0
11 -4 11 -10z m-288 -69 c-1 -7 3 -19 9 -27 11 -14 10 -15 -22 -18 -7 -1 -13
14 -15 32 -3 28 -1 33 14 30 9 -2 16 -10 14 -17z m-55 -38 c3 -7 -4 -9 -16 -6
-12 3 -18 9 -15 15 7 11 26 6 31 -9z m203 -33 c0 -5 -9 -9 -20 -7 -31 5 -36
17 -7 17 15 0 27 -4 27 -10z m-115 -10 c3 -5 1 -10 -4 -10 -6 0 -11 5 -11 10
0 6 2 10 4 10 3 0 8 -4 11 -10z m-10 -40 c3 -5 1 -10 -4 -10 -6 0 -11 5 -11
10 0 6 2 10 4 10 3 0 8 -4 11 -10z m445 -20 c8 -5 11 -10 5 -10 -5 0 -17 5
-25 10 -8 5 -10 10 -5 10 6 0 17 -5 25 -10z m112 -60 c6 0 9 -3 6 -6 -9 -8
-48 14 -48 27 0 6 7 3 16 -5 8 -9 20 -16 26 -16z m488 -1 c0 -5 -7 -6 -15 -3
-8 4 -15 13 -15 21 0 13 3 13 15 3 8 -7 15 -16 15 -21z m-432 -48 c3 -10 -2
-11 -19 -6 -39 12 -48 27 -15 23 16 -2 31 -9 34 -17z m649 -57 c-3 -3 -12 -4
-19 -1 -8 3 -5 6 6 6 11 1 17 -2 13 -5z m-642 -94 c3 -5 -1 -10 -10 -10 -9 0
-13 5 -10 10 3 6 8 10 10 10 2 0 7 -4 10 -10z m20 -110 c3 -5 1 -10 -4 -10 -6
0 -11 5 -11 10 0 6 2 10 4 10 3 0 8 -4 11 -10z m445 -574 c8 -7 24 -16 35 -21
13 -5 16 -9 7 -12 -7 -3 -19 0 -26 6 -8 7 -31 21 -52 32 -36 18 -37 20 -9 14
17 -4 37 -12 45 -19z m64 -62 c3 -8 2 -12 -4 -9 -6 3 -10 10 -10 16 0 14 7 11
14 -7z m-1517 -96 c-3 -8 -6 -5 -6 6 -1 11 2 17 5 13 3 -3 4 -12 1 -19z m1083
-232 c30 -16 73 -35 95 -42 l40 -13 -40 1 c-23 1 -46 -1 -52 -5 -13 -8 -59 7
-77 26 -14 14 -36 52 -36 62 0 8 0 8 70 -29z m570 -696 c0 -5 -7 -10 -15 -10
-8 0 -15 5 -15 10 0 6 7 10 15 10 8 0 15 -4 15 -10z m170 -1025 c0 -8 -112
-56 -118 -50 -3 2 4 8 14 11 10 4 27 14 36 21 9 8 21 12 27 9 5 -4 12 -2 16 4
6 10 25 14 25 5z m-160 -75 c-19 -11 -42 -19 -50 -19 -8 0 3 9 25 20 52 24 70
24 25 -1z m180 -20 c0 -10 -87 -6 -98 4 -3 4 18 6 46 6 29 0 52 -4 52 -10z
m140 -11 c10 -7 0 -8 -30 -3 -25 3 -49 11 -55 16 -12 13 63 1 85 -13z m128
-46 c-2 -12 3 -17 15 -15 9 2 24 -4 32 -12 13 -13 10 -14 -30 -13 -42 2 -45 4
-45 30 0 18 5 27 15 27 10 0 15 -7 13 -17z m1007 -511 c22 -31 50 -67 62 -81
13 -15 34 -39 48 -56 35 -41 150 -225 160 -254 11 -36 59 -114 144 -236 90
-127 125 -184 119 -191 -3 -2 -43 37 -89 86 -47 50 -84 92 -82 94 6 5 -57 26
-78 26 -11 0 -16 6 -13 18 7 27 -11 48 -29 34 -11 -10 -17 -2 -30 46 -9 31
-24 66 -35 77 -10 11 -17 26 -14 33 2 6 -1 12 -7 12 -6 0 -11 7 -11 15 0 9 -9
15 -22 15 -17 0 -19 3 -9 9 10 6 10 10 1 16 -9 6 -9 9 0 15 10 6 6 15 -15 34
-17 16 -23 26 -14 27 10 0 11 2 2 6 -7 2 -13 13 -13 23 0 9 -7 23 -15 30 -8 7
-13 16 -10 20 2 4 -7 17 -20 30 -13 13 -22 26 -20 30 3 4 -2 13 -10 20 -7 6
-11 19 -8 27 4 10 2 14 -4 10 -12 -8 -23 14 -23 46 0 11 -9 31 -21 43 -21 23
-19 48 4 38 7 -3 30 -31 52 -62z m345 -802 c0 -5 -4 -10 -9 -10 -6 0 -13 5
-16 10 -3 6 1 10 9 10 9 0 16 -4 16 -10z m-2906 -756 c4 -11 2 -12 -14 -1 -11
6 -20 15 -20 19 0 12 28 -3 34 -18z m2933 -640 c-3 -3 -12 -4 -19 -1 -8 3 -5
6 6 6 11 1 17 -2 13 -5z m-6148 -133 c12 -8 12 -12 2 -25 -8 -9 -10 -16 -6
-16 4 0 2 -6 -4 -14 -6 -7 -9 -20 -5 -29 3 -8 -3 -23 -14 -33 -11 -11 -22 -30
-24 -44 -2 -19 -8 -24 -23 -22 -11 2 -48 3 -83 4 -51 0 -65 4 -73 20 -5 10
-13 16 -18 14 -8 -5 -34 105 -26 112 3 3 5 -3 5 -14 1 -18 1 -18 15 0 7 10 18
15 24 11 6 -3 11 -2 11 3 0 5 10 13 23 17 12 5 31 11 42 15 29 11 137 11 154
1z"/>
<path d="M3640 7691 c0 -11 31 -24 39 -16 3 3 -1 10 -9 15 -19 12 -30 12 -30
1z"/>
<path d="M3760 7642 c0 -12 19 -26 26 -19 2 2 -2 10 -11 17 -9 8 -15 8 -15 2z"/>
<path d="M4415 7440 c3 -5 13 -10 21 -10 8 0 12 5 9 10 -3 6 -13 10 -21 10 -8
0 -12 -4 -9 -10z"/>
<path d="M4467 7419 c7 -7 15 -10 18 -7 3 3 -2 9 -12 12 -14 6 -15 5 -6 -5z"/>
<path d="M4531 7070 c1 -8 5 -26 9 -40 l8 -25 1 25 c0 14 -4 32 -9 40 -9 13
-10 13 -9 0z"/>
<path d="M4594 7069 c-8 -14 11 -33 25 -25 16 10 13 36 -3 36 -8 0 -18 -5 -22
-11z"/>
<path d="M4594 6965 c4 -35 2 -55 -4 -55 -13 0 -13 -243 0 -329 28 -172 46
-255 58 -268 7 -7 29 -13 48 -13 50 0 104 -25 104 -48 0 -28 -10 -33 -40 -17
-15 8 -47 17 -71 21 l-42 7 6 -46 c6 -46 6 -47 -40 -84 -68 -55 -137 -122
-131 -128 3 -3 30 17 62 45 31 27 66 54 76 60 27 14 60 -4 61 -33 0 -12 1 -60
2 -106 2 -81 3 -84 25 -86 33 -2 44 -23 39 -72 -3 -31 -1 -40 9 -36 7 3 29 -1
49 -7 33 -11 39 -10 76 15 33 23 39 33 39 62 0 34 -27 70 -75 100 -20 12 -20
12 -1 28 37 29 64 19 88 -30 18 -37 24 -42 30 -28 3 10 7 36 7 57 1 31 -5 45
-29 68 -27 25 -30 34 -24 63 l6 35 -51 0 c-60 0 -75 18 -43 53 28 30 44 74 31
83 -6 3 -9 17 -6 31 3 16 -1 27 -14 34 -11 5 -19 16 -19 24 0 8 -7 15 -15 15
-8 0 -15 5 -15 10 0 6 7 10 15 10 20 0 19 17 -1 28 -12 7 -15 25 -15 79 0 50
-4 75 -14 83 -8 7 -15 26 -15 42 0 25 -3 28 -20 23 -16 -5 -20 -2 -20 15 0 15
5 20 15 17 8 -4 17 -2 20 2 2 5 -6 12 -20 15 -18 5 -25 13 -25 29 0 13 -5 28
-12 35 -9 9 -9 15 1 25 11 10 14 10 18 0 8 -23 21 -14 34 24 9 28 9 38 0 41
-16 5 -14 22 4 22 8 0 23 -10 35 -22 l20 -22 0 22 c0 11 5 24 10 27 15 10 12
38 -4 32 -7 -3 -19 0 -25 6 -8 8 -11 8 -11 -1 0 -24 -15 -11 -17 14 -1 24 -17
43 -35 44 -8 0 -12 -27 -9 -70 3 -50 2 -63 -7 -72 -6 -6 -12 2 -17 24 -7 38
-42 115 -64 141 -8 9 -21 17 -29 17 -12 0 -14 -10 -8 -55z m138 -957 c-8 -8
-9 -4 -5 13 4 13 8 18 11 10 2 -7 -1 -18 -6 -23z"/>
<path d="M4821 6803 c2 -21 -3 -48 -10 -60 -14 -27 -1 -30 22 -5 12 13 15 28
10 55 -8 51 -24 58 -22 10z"/>
<path d="M4750 6719 c0 -5 5 -7 10 -4 6 3 10 8 10 11 0 2 -4 4 -10 4 -5 0 -10
-5 -10 -11z"/>
<path d="M4870 6600 c0 -5 5 -10 10 -10 6 0 10 5 10 10 0 6 -4 10 -10 10 -5 0
-10 -4 -10 -10z"/>
<path d="M4850 5709 c0 -5 5 -7 10 -4 6 3 10 8 10 11 0 2 -4 4 -10 4 -5 0 -10
-5 -10 -11z"/>
<path d="M4697 5555 c-7 -18 50 -31 90 -20 26 7 25 8 -22 21 -63 17 -62 17
-68 -1z"/>
<path d="M4922 4616 l-33 -12 21 -19 c22 -20 22 -20 41 4 33 41 26 48 -29 27z"/>
<path d="M4980 4470 c0 -5 7 -10 15 -10 8 0 15 5 15 10 0 6 -7 10 -15 10 -8 0
-15 -4 -15 -10z"/>
<path d="M5030 4472 c0 -15 61 -53 78 -49 15 3 15 5 -3 12 -11 5 -26 17 -33
27 -13 18 -42 25 -42 10z"/>
<path d="M4991 4246 c-7 -8 -8 -17 -3 -19 4 -3 13 3 20 14 14 22 0 26 -17 5z"/>
<path d="M5087 4215 c3 -8 9 -12 14 -9 12 7 11 11 -5 17 -10 4 -13 1 -9 -8z"/>
<path d="M5500 4170 c0 -5 7 -10 16 -10 8 0 12 5 9 10 -3 6 -10 10 -16 10 -5
0 -9 -4 -9 -10z"/>
<path d="M5188 4153 c7 -3 16 -2 19 1 4 3 -2 6 -13 5 -11 0 -14 -3 -6 -6z"/>
<path d="M5590 4142 c0 -5 17 -21 38 -35 64 -43 160 -136 135 -130 -14 3 -23
1 -23 -6 0 -6 6 -11 13 -11 7 0 18 -9 25 -21 7 -11 18 -18 25 -16 7 2 24 -2
40 -10 41 -21 33 -5 -36 67 -81 86 -217 187 -217 162z m215 -192 c3 -5 1 -10
-4 -10 -6 0 -11 5 -11 10 0 6 2 10 4 10 3 0 8 -4 11 -10z"/>
<path d="M5250 4090 c0 -5 5 -10 11 -10 5 0 7 5 4 10 -3 6 -8 10 -11 10 -2 0
-4 -4 -4 -10z"/>
<path d="M6140 3756 c24 -25 49 -46 54 -46 13 0 -53 69 -79 82 -11 6 0 -10 25
-36z"/>
<path d="M6238 3608 c60 -88 191 -294 206 -325 6 -13 14 -23 18 -23 4 0 19
-18 34 -41 14 -22 28 -38 31 -35 3 3 -8 27 -24 53 -17 26 -45 75 -63 108 -63
113 -223 334 -243 335 -5 0 14 -33 41 -72z"/>
<path d="M717 2890 c-4 -15 0 -20 15 -20 13 0 18 6 16 17 -5 24 -25 27 -31 3z"/>
<path d="M346 2845 c-17 -18 -33 -41 -36 -51 -7 -19 9 -45 23 -37 4 2 7 -1 7
-6 0 -6 5 -11 10 -11 6 0 10 8 10 18 0 9 13 23 30 30 28 13 44 52 21 52 -5 0
-11 9 -14 20 -7 27 -17 24 -51 -15z"/>
<path d="M838 2837 c22 -13 22 -13 -19 -31 l-42 -19 34 -17 c19 -10 45 -20 59
-21 23 -4 25 0 28 40 3 50 -6 61 -53 60 -30 0 -30 0 -7 -12z"/>
<path d="M262 2748 c3 -7 14 -17 26 -23 12 -5 22 -13 22 -17 0 -5 5 -8 10 -8
22 0 8 30 -22 44 -38 19 -41 20 -36 4z"/>
<path d="M205 2710 c-4 -6 -15 -8 -26 -5 -13 4 -19 2 -19 -9 0 -8 -12 -24 -26
-35 -15 -12 -24 -27 -21 -35 7 -18 -28 -52 -38 -36 -4 7 -13 3 -26 -11 -13
-15 -19 -18 -20 -8 -1 8 -5 3 -9 -11 -10 -30 -11 -252 -2 -228 5 13 11 15 22
8 8 -5 38 -10 65 -10 28 0 67 -4 88 -9 21 -5 39 -5 43 0 3 5 15 9 27 9 12 0
35 7 51 15 15 8 37 15 47 15 20 0 37 20 17 21 -7 0 2 7 20 15 17 8 32 21 32
29 0 9 7 18 15 21 39 15 18 84 -27 84 -10 0 -18 6 -18 14 0 8 -7 16 -15 19
-26 11 -70 86 -74 130 -1 4 -10 7 -20 7 -11 0 -23 5 -26 10 -8 13 -52 13 -60
0z"/>
<path d="M855 2710 c-3 -5 3 -10 15 -10 12 0 18 5 15 10 -3 6 -10 10 -15 10
-5 0 -12 -4 -15 -10z"/>
<path d="M6630 2371 c0 -9 24 -21 42 -21 6 0 6 6 -2 15 -14 16 -40 20 -40 6z"/>
<path d="M390 2241 c0 -20 13 -41 25 -41 18 0 26 15 19 34 -6 17 -44 23 -44 7z"/>
<path d="M352 2180 c0 -14 2 -19 5 -12 2 6 2 18 0 25 -3 6 -5 1 -5 -13z"/>
<path d="M525 2180 c4 -6 11 -8 16 -5 14 9 11 15 -7 15 -8 0 -12 -5 -9 -10z"/>
<path d="M1630 2146 c0 -28 26 -37 48 -17 25 21 19 31 -20 31 -17 0 -28 -5
-28 -14z"/>
<path d="M6701 1944 c13 -16 29 -19 29 -5 0 5 -9 11 -21 14 -16 4 -18 3 -8 -9z"/>
<path d="M7147 1479 c-9 -5 -22 -7 -27 -4 -14 9 -116 -51 -163 -95 -21 -19
-45 -39 -53 -43 -8 -4 -14 -13 -14 -20 0 -7 -12 -25 -26 -42 -21 -25 -27 -27
-35 -15 -8 11 -9 8 -5 -12 3 -15 2 -30 -4 -33 -12 -7 -13 -60 -4 -168 6 -66
10 -77 25 -77 11 0 19 -5 19 -10 0 -6 15 -8 40 -4 27 4 40 3 40 -5 0 -6 6 -11
13 -11 8 0 18 -22 26 -52 19 -88 44 -138 66 -138 11 0 28 -7 38 -15 22 -16
197 -20 197 -4 0 5 18 9 40 9 22 0 40 -5 40 -11 0 -5 16 -17 35 -25 40 -16 48
-17 41 -5 -3 4 5 13 19 19 17 8 22 17 18 31 -3 12 5 33 21 54 37 49 35 68 -5
46 -18 -9 -19 -9 -7 11 17 27 -4 42 -49 34 -21 -4 -33 -2 -33 5 0 6 -12 11
-27 10 -16 0 -35 1 -43 3 -20 5 -80 62 -80 76 0 7 -11 14 -25 18 -29 7 -30 12
-10 34 8 9 16 29 17 43 1 15 7 27 13 27 6 0 17 16 25 35 7 19 16 32 20 30 10
-6 7 97 -3 112 -4 7 -8 40 -10 75 -2 67 -14 90 -59 114 -32 16 -47 17 -71 3z
m-297 -490 c0 -5 -4 -9 -10 -9 -5 0 -10 7 -10 16 0 8 5 12 10 9 6 -3 10 -10
10 -16z m545 -113 c18 -13 18 -14 -8 -9 -15 3 -27 9 -27 14 0 13 13 11 35 -5z"/>
<path d="M7907 677 c-5 -13 -16 -17 -41 -15 -22 1 -42 -5 -54 -15 -10 -9 -32
-17 -48 -18 -16 0 -23 -3 -15 -6 9 -4 3 -10 -18 -19 -40 -17 -34 -29 19 -38
40 -6 119 -50 121 -67 5 -35 2 -44 -14 -41 -10 2 -17 -3 -17 -13 0 -8 -8 -15
-17 -15 -10 0 -38 -12 -62 -26 -37 -20 -52 -24 -85 -18 -49 8 -92 42 -119 92
-36 69 -60 85 -107 71 -25 -7 -25 -7 -2 -8 13 -1 20 -5 17 -11 -4 -6 -10 -8
-15 -5 -5 3 -18 -3 -29 -14 -38 -38 -92 -56 -160 -53 -54 2 -69 -2 -95 -21
-76 -56 -98 -64 -176 -61 -41 2 -75 3 -75 4 0 1 -8 3 -17 5 -10 2 -18 -1 -18
-6 0 -4 -7 -6 -15 -3 -8 4 -22 1 -30 -6 -8 -7 -15 -9 -15 -4 0 4 -5 3 -11 -3
-12 -12 -22 -272 -11 -289 4 -7 57 -19 117 -28 61 -8 126 -20 145 -26 21 -6
219 -10 512 -10 l478 0 0 265 c0 252 -1 266 -20 285 -22 22 -46 26 -52 9 -2
-5 -11 -7 -22 -3 -13 5 -17 14 -14 35 3 16 1 29 -2 29 -4 0 -11 15 -16 33 -8
26 -11 29 -17 14z m-37 -87 c0 -5 -16 -10 -35 -10 -19 0 -35 5 -35 10 0 6 16
10 35 10 19 0 35 -4 35 -10z"/>
</g>
</svg>
